<svg width="56" height="18" fill="none" xmlns="http://www.w3.org/2000/svg"><g clip-path="url(#a)"><path d="M29.513 4.793c0 .63-.507 1.137-1.137 1.137s-1.136-.507-1.136-1.137.49-1.137 1.136-1.137c.648.018 1.137.525 1.137 1.137Zm-4.687 2.291v.28s-.542-.7-1.696-.7c-1.906 0-3.393 1.452-3.393 3.463 0 1.994 1.47 3.463 3.393 3.463 1.172 0 1.696-.717 1.696-.717v.297c0 .14.105.245.245.245h1.416V6.839h-1.416a.251.251 0 0 0-.245.245Zm0 4.215c-.262.385-.787.717-1.416.717-1.12 0-1.977-.7-1.977-1.889 0-1.19.857-1.889 1.977-1.889.612 0 1.171.35 1.416.717V11.3Zm2.711-4.46h1.679v6.576h-1.679V6.84Zm25.08-.175c-1.155 0-1.697.7-1.697.7v-3.69h-1.679v9.741h1.417a.25.25 0 0 0 .245-.245v-.297s.542.717 1.696.717c1.906 0 3.393-1.468 3.393-3.462 0-1.994-1.487-3.464-3.375-3.464ZM52.337 12a1.712 1.712 0 0 1-1.417-.717V8.938c.262-.35.822-.717 1.417-.717 1.119 0 1.976.7 1.976 1.889s-.857 1.889-1.976 1.889Zm-3.97-2.484v3.918h-1.68V9.708c0-1.085-.35-1.522-1.293-1.522-.507 0-1.032.262-1.365.647v4.583h-1.678V6.839h1.329a.25.25 0 0 1 .245.245v.28c.49-.507 1.136-.7 1.783-.7.735 0 1.347.21 1.837.63.594.49.822 1.12.822 2.221Zm-10.092-2.85c-1.154 0-1.696.7-1.696.7V3.673H34.9v9.741h1.416a.25.25 0 0 0 .245-.245v-.297s.543.717 1.697.717c1.906 0 3.393-1.468 3.393-3.462.017-1.994-1.47-3.464-3.376-3.464Zm-.28 5.334a1.712 1.712 0 0 1-1.416-.717V8.938c.262-.35.822-.717 1.416-.717 1.12 0 1.977.7 1.977 1.889s-.857 1.889-1.977 1.889Zm-4.547-5.335c.507 0 .77.088.77.088v1.556s-1.4-.472-2.274.525v4.6h-1.679V6.839h1.417a.25.25 0 0 1 .245.245v.28c.315-.367.997-.7 1.521-.7Zm-17.436 6.157c-.088-.21-.175-.438-.262-.63-.14-.315-.28-.612-.403-.892l-.017-.017a182.328 182.328 0 0 0-3.865-7.905l-.053-.105a34.206 34.206 0 0 1-.42-.823c-.174-.315-.349-.646-.629-.962A2.825 2.825 0 0 0 8.143.403c-.876 0-1.662.385-2.24 1.05a5.996 5.996 0 0 0-.629.961c-.137.276-.276.55-.42.822l-.052.106a205.14 205.14 0 0 0-3.865 7.904l-.018.035c-.122.28-.262.578-.402.892a11.58 11.58 0 0 0-.262.63c-.228.647-.298 1.259-.21 1.889a3.717 3.717 0 0 0 2.273 2.903c.455.193.927.28 1.417.28a4.62 4.62 0 0 0 2.204-.63c.717-.402 1.399-.979 2.168-1.818.77.84 1.47 1.416 2.17 1.819a4.62 4.62 0 0 0 2.203.629c.49 0 .98-.087 1.416-.28a3.71 3.71 0 0 0 2.274-2.903c.139-.612.07-1.224-.158-1.871Zm-7.888.91c-.944-1.19-1.556-2.31-1.766-3.254-.087-.402-.105-.752-.052-1.067.034-.28.14-.524.28-.734.332-.472.891-.77 1.539-.77.647 0 1.224.28 1.539.77.14.21.245.455.28.734.052.315.035.682-.053 1.067-.21.927-.822 2.046-1.767 3.253Zm6.978.821a2.599 2.599 0 0 1-1.591 2.047c-.42.174-.875.227-1.33.174a3.446 3.446 0 0 1-1.328-.454c-.63-.35-1.26-.892-1.994-1.697 1.154-1.416 1.854-2.71 2.116-3.865.123-.542.14-1.032.088-1.487a2.835 2.835 0 0 0-.473-1.19c-.542-.786-1.452-1.24-2.466-1.24-1.014 0-1.923.471-2.466 1.24-.244.35-.402.753-.472 1.19-.07.455-.052.962.088 1.487.262 1.154.979 2.466 2.116 3.883-.717.804-1.365 1.346-1.994 1.696a3.432 3.432 0 0 1-1.33.455 2.797 2.797 0 0 1-1.328-.175 2.6 2.6 0 0 1-1.592-2.046 2.893 2.893 0 0 1 .158-1.364c.052-.175.14-.35.227-.56.122-.28.262-.578.402-.875l.018-.035c1.206-2.606 2.5-5.264 3.847-7.852l.053-.105c.14-.262.28-.542.42-.805.14-.28.297-.542.49-.77a1.83 1.83 0 0 1 1.398-.646 1.83 1.83 0 0 1 1.4.647c.192.228.35.49.49.77.14.262.28.542.419.804l.053.105a231.501 231.501 0 0 1 3.83 7.87v.018c.14.28.262.594.402.874.087.21.175.385.227.56.14.454.192.892.122 1.346Z" fill="#FF5A5F"/></g><defs><clipPath id="a"><path fill="#fff" transform="translate(0 .403)" d="M0 0h56v17.472H0z"/></clipPath></defs></svg>