<svg width="56" height="19" fill="none" xmlns="http://www.w3.org/2000/svg"><g clip-path="url(#a)"><path d="M6.897.003h.497c1.73.038 3.43.733 4.65 1.965-.45.461-.911.902-1.353 1.362-.685-.62-1.512-1.1-2.414-1.268-1.335-.282-2.771-.03-3.891.732-1.221.8-2.048 2.153-2.227 3.6-.197 1.429.206 2.932 1.138 4.04a5.031 5.031 0 0 0 3.665 1.804c1.315.076 2.688-.33 3.646-1.25.753-.647 1.1-1.635 1.212-2.594-1.559 0-3.12.01-4.68 0V6.46h6.569c.338 2.076-.15 4.415-1.73 5.9-1.052 1.053-2.509 1.673-3.994 1.794-1.438.141-2.923-.132-4.2-.826A7.228 7.228 0 0 1 .432 9.503a6.928 6.928 0 0 1-.047-4.69 7.159 7.159 0 0 1 2.585-3.43C4.106.547 5.488.086 6.897.003Z" fill="#3780FF"/><path d="M44.574.49h2.011v13.418c-.667 0-1.344.01-2.011-.009.011-4.464 0-8.937 0-13.408Z" fill="#38B137"/><path d="M18.182 5.14c1.239-.234 2.583.03 3.606.771a4.418 4.418 0 0 1 1.777 2.818c.253 1.306-.065 2.735-.912 3.768-.912 1.156-2.406 1.776-3.862 1.682-1.335-.076-2.63-.741-3.42-1.832-.892-1.203-1.109-2.856-.62-4.265.49-1.512 1.87-2.668 3.431-2.941Zm.28 1.786a2.53 2.53 0 0 0-1.315.836c-.912 1.09-.855 2.865.15 3.88a2.498 2.498 0 0 0 2.236.694c.741-.133 1.39-.63 1.747-1.288.62-1.118.441-2.66-.509-3.533a2.539 2.539 0 0 0-2.309-.589Z" fill="#FA3913"/><path d="M28.141 5.14c1.418-.273 2.97.124 4.03 1.119 1.73 1.55 1.917 4.453.441 6.238-.891 1.127-2.338 1.747-3.768 1.682-1.361-.038-2.705-.714-3.514-1.832-.912-1.23-1.109-2.923-.591-4.36.517-1.464 1.87-2.582 3.402-2.846Zm.282 1.786a2.572 2.572 0 0 0-1.314.827c-.903 1.07-.865 2.817.102 3.843.574.612 1.466.912 2.292.742a2.575 2.575 0 0 0 1.747-1.288c.612-1.127.433-2.668-.526-3.542a2.521 2.521 0 0 0-2.3-.582Z" fill="#FCBD06"/><path d="M36.588 5.685c1.08-.676 2.518-.865 3.683-.282.367.159.667.432.959.705.008-.253 0-.517.008-.779.63.009 1.26 0 1.898.009v8.288c-.01 1.25-.33 2.574-1.23 3.485-.986 1.006-2.5 1.315-3.862 1.11-1.456-.216-2.724-1.278-3.288-2.622.564-.273 1.156-.488 1.738-.741.33.77.997 1.429 1.832 1.58.836.15 1.804-.057 2.35-.753.583-.715.583-1.692.553-2.565-.432.423-.93.8-1.532.938-1.306.368-2.744-.085-3.75-.967a4.605 4.605 0 0 1-1.559-3.6c.03-1.53.894-3.006 2.2-3.806Zm1.944 1.203a2.48 2.48 0 0 0-1.476.856c-.882 1.052-.882 2.735.01 3.767.508.612 1.323.95 2.114.865.741-.076 1.429-.544 1.794-1.194.62-1.1.518-2.594-.32-3.553a2.313 2.313 0 0 0-2.122-.741Z" fill="#3780FF"/><path d="M49 6.165c1.127-1.053 2.865-1.41 4.312-.856 1.37.517 2.247 1.823 2.688 3.167-2.038.847-4.068 1.682-6.108 2.527.282.535.714 1.024 1.296 1.22.818.292 1.795.189 2.48-.356.273-.206.489-.479.694-.74.518.346 1.033.684 1.55 1.032-.732 1.1-1.964 1.87-3.288 1.991-1.465.18-3.026-.385-3.973-1.532-1.56-1.801-1.407-4.827.349-6.453Zm1.006 1.738c-.32.461-.45 1.023-.441 1.579 1.361-.565 2.723-1.127 4.088-1.7-.227-.527-.771-.847-1.324-.93-.896-.161-1.826.318-2.323 1.05Z" fill="#FA3913"/></g><defs><clipPath id="a"><path fill="#fff" d="M0 0h56v18.278H0z"/></clipPath></defs></svg>