<svg width="57" height="18" fill="none" xmlns="http://www.w3.org/2000/svg"><g clip-path="url(#a)"><path d="M.177 4.018h1.952v4.338h4.118V4.018h1.955v10.649H6.247v-4.43H2.13v4.43H.177V4.018Zm14.211 7.18a1.62 1.62 0 0 1-1.617 1.617 1.62 1.62 0 0 1-1.618-1.617V6.614H9.301v4.584a3.473 3.473 0 0 0 3.47 3.469 3.472 3.472 0 0 0 3.468-3.469V6.614h-1.851v4.584Zm7.02-4.53c-.918 0-1.56.266-2.178.874V4.018h-1.858v6.53c0 2.445 1.767 4.119 3.753 4.119 2.207 0 4.14-1.704 4.14-4 0-2.266-1.783-4-3.857-4Zm.046 6.28c-1.258 0-2.22-1.051-2.22-2.28 0-1.23.962-2.282 2.22-2.282 1.067 0 2.03 1.051 2.03 2.281 0 1.23-.963 2.281-2.03 2.281Zm6.932-5.813c0-.933.622-1.23 1.303-1.23.549 0 1.274.415 1.748.919l1.214-1.422c-.607-.815-1.836-1.378-2.843-1.378-2.015 0-3.467 1.17-3.467 3.111 0 3.6 4.43 2.459 4.43 4.474 0 .621-.607 1.17-1.303 1.17-1.097 0-1.453-.533-1.956-1.096l-1.348 1.392c.86 1.052 1.926 1.585 3.2 1.585 1.91 0 3.451-1.185 3.451-3.037 0-3.999-4.43-2.755-4.43-4.488Zm9.32-.572c-1.986 0-3.753 1.673-3.753 4.118v6.547h1.858v-3.54c.619.607 1.26.874 2.179.874 2.073 0 3.857-1.733 3.857-4 0-2.296-1.934-3.999-4.141-3.999Zm.33 6.28c-1.259 0-2.222-1.052-2.222-2.28 0-1.23.963-2.282 2.222-2.282 1.066 0 2.03 1.052 2.03 2.281 0 1.23-.964 2.282-2.03 2.282Zm17.485.105c-1.095 0-1.407-.474-1.407-1.2V8.534h1.704v-1.63h-1.703V4.757l-1.881.845v6.547c0 1.674 1.155 2.519 2.74 2.519.236 0 .562-.016.74-.06l.46-1.688a9.932 9.932 0 0 1-.653.029Z" fill="#45535E"/><path d="M50.622 8.629a4.086 4.086 0 0 0-1.483-1.474 3.983 3.983 0 0 0-1.5-.52V4.688c.547-.232.886-.746.886-1.345 0-.818-.655-1.48-1.472-1.48s-1.484.662-1.484 1.48c0 .6.32 1.113.867 1.345v1.948c-.438.063-.892.2-1.306.41-.846-.643-3.621-2.752-5.244-3.983a1.61 1.61 0 0 0 .068-.433 1.638 1.638 0 1 0-1.638 1.639c.309 0 .595-.09.841-.239l.343.26 4.707 3.391c-.249.229-.48.489-.666.78-.376.595-.605 1.249-.605 1.962v.15c0 .5.095.973.257 1.417.143.388.351.74.61 1.06l-1.563 1.565a1.258 1.258 0 0 0-1.605.703 1.258 1.258 0 0 0-.096.485c0 .338.132.656.371.895a1.259 1.259 0 0 0 1.381.276 1.26 1.26 0 0 0 .686-.686 1.26 1.26 0 0 0 .038-.865l1.614-1.615c.221.153.46.281.718.393.507.219 1.066.352 1.679.352h.112c.677 0 1.316-.159 1.916-.484a3.965 3.965 0 0 0 1.502-1.414 3.71 3.71 0 0 0 .583-1.998v-.037c0-.72-.167-1.383-.517-1.991Zm-1.973 3.387c-.438.487-.942.787-1.511.787h-.094c-.325 0-.643-.09-.955-.253a2.206 2.206 0 0 1-.836-.762 1.777 1.777 0 0 1-.349-1.037v-.112c0-.364.07-.708.246-1.033.188-.356.441-.633.778-.852a1.906 1.906 0 0 1 1.08-.326h.036c.357 0 .695.07 1.015.234.325.174.59.412.796.725.2.313.32.65.358 1.018.006.077.009.155.009.23 0 .5-.191.962-.573 1.381Z" fill="#F8761F"/></g><defs><clipPath id="a"><path fill="#fff" transform="translate(.17 .986)" d="M0 0h56v16.307H0z"/></clipPath></defs></svg>