<svg aria-hidden="true" style="position: absolute; width: 0; height: 0; overflow: hidden;" version="1.1" xmlns="http://www.w3.org/2000/svg" xmlns:xlink="http://www.w3.org/1999/xlink">
<defs>
<symbol id="arrow-down" viewBox="0 0 64 32">
<path d="M63.596 4.54c0-0.003 0-0.006 0-0.009 0-2.503-2.029-4.532-4.532-4.532-1.108 0-2.124 0.398-2.911 1.058l0.007-0.006-24.296 20.308-24.344-19.584c-0.773-0.632-1.771-1.015-2.858-1.015-1.425 0-2.696 0.658-3.527 1.686l-0.007 0.009c-0.702 0.794-1.131 1.845-1.131 2.996 0 1.477 0.706 2.789 1.8 3.616l0.011 0.008 27.2 21.892c0.776 0.643 1.783 1.033 2.88 1.033s2.104-0.39 2.888-1.039l-0.008 0.006 27.196-22.664c1.005-0.838 1.64-2.090 1.64-3.491 0-0.095-0.003-0.188-0.009-0.282l0.001 0.013z"></path>
</symbol>
<symbol id="arrow-right" viewBox="0 0 18 32">
<path d="M1.353 2.725l-0.905 0.896c-0.271 0.27-0.439 0.643-0.439 1.056 0 0.003 0 0.006 0 0.009v-0c0 0.398 0.155 0.777 0.439 1.061l10.249 10.249-10.258 10.258c-0.271 0.27-0.439 0.643-0.439 1.056 0 0.002 0 0.003 0 0.005v-0c0 0.402 0.155 0.777 0.439 1.061l0.896 0.901c0.272 0.272 0.648 0.44 1.063 0.44s0.791-0.168 1.063-0.44v0l12.261-12.215c0.285-0.269 0.466-0.645 0.48-1.063l0-0.002v-0.005c-0.015-0.419-0.196-0.793-0.479-1.060l-0.001-0.001-12.229-12.206c-0.274-0.274-0.652-0.443-1.070-0.443s-0.796 0.169-1.070 0.443v0z"></path>
</symbol>
<symbol id="close" viewBox="0 0 32 32">
<path d="M7.515 4.687l19.799 19.799-2.828 2.828-19.799-19.799 2.828-2.828z"></path>
<path d="M4.687 24.486l19.799-19.799 2.828 2.828-19.799 19.799-2.828-2.828z"></path>
</symbol>
<symbol id="menu" viewBox="0 0 48 32">
<path d="M45.466 13.334h-42.932c-1.4 0-2.534 1.134-2.534 2.532v0.268c0 1.4 1.134 2.532 2.534 2.532h42.932c1.4 0 2.534-1.134 2.534-2.532v-0.268c0-1.4-1.134-2.532-2.534-2.532zM45.466 26.666h-42.932c-1.4 0-2.534 1.134-2.534 2.534v0.266c0 1.4 1.134 2.534 2.534 2.534h42.932c1.4 0 2.534-1.134 2.534-2.534v-0.266c0-1.4-1.134-2.534-2.534-2.534zM45.466 0h-42.932c-1.4 0-2.534 1.134-2.534 2.534v0.266c0 1.4 1.134 2.534 2.534 2.534h42.932c1.4 0 2.534-1.134 2.534-2.534v-0.266c0-1.4-1.134-2.534-2.534-2.534z"></path>
</symbol>
</defs>
</svg>
