<svg width="48" height="48" fill="none" xmlns="http://www.w3.org/2000/svg"><circle cx="24" cy="24" r="24" fill="#E8FAFA"/><path d="M27.086 23.657a1.371 1.371 0 1 0 0-2.743 1.371 1.371 0 0 0 0 2.743Z" fill="#23CEC9"/><path d="M33.6 15.428a1.029 1.029 0 0 0-1.029-1.028h-12v19.2h12A1.029 1.029 0 0 0 33.6 32.57V15.43Zm-6.514 13.715A5.143 5.143 0 1 1 32.229 24a5.149 5.149 0 0 1-5.143 5.143Z" fill="#23CEC9"/><path d="M27.086 19.543a4.455 4.455 0 0 0-3.429 7.303v-.789a2.404 2.404 0 0 1 1.94-2.355 2.058 2.058 0 1 1 2.977 0 2.404 2.404 0 0 1 1.94 2.355v.789a4.454 4.454 0 0 0-3.428-7.303Z" fill="#23CEC9"/><path d="M28.114 24.343h-2.057a1.716 1.716 0 0 0-1.714 1.714v1.45a4.43 4.43 0 0 0 5.486 0v-1.45a1.717 1.717 0 0 0-1.715-1.714ZM17.829 21.943a.686.686 0 0 0-.686-.686h-2.057a.686.686 0 1 0 0 1.372h2.057a.686.686 0 0 0 .686-.686Z" fill="#23CEC9"/><path d="M16.457 15.428v1.029h.686a1.371 1.371 0 0 1 0 2.743h-.686v1.371h.686a1.371 1.371 0 0 1 0 2.743h-.686v1.715h.686a1.371 1.371 0 0 1 0 2.742h-.686v1.372h.686a1.371 1.371 0 1 1 0 2.743h-.686v.685a1.029 1.029 0 0 0 1.029 1.029h2.4V14.4h-2.4a1.029 1.029 0 0 0-1.029 1.028Z" fill="#23CEC9"/><path d="M15.086 18.514h2.057a.686.686 0 0 0 0-1.371h-2.057a.686.686 0 0 0 0 1.371ZM17.829 26.4a.686.686 0 0 0-.686-.686h-2.057a.686.686 0 1 0 0 1.372h2.057a.686.686 0 0 0 .686-.686ZM17.829 30.514a.686.686 0 0 0-.686-.686h-2.057a.686.686 0 1 0 0 1.372h2.057a.686.686 0 0 0 .686-.686Z" fill="#23CEC9"/></svg>