<svg width="48" height="48" fill="none" xmlns="http://www.w3.org/2000/svg"><circle cx="24" cy="24" r="24" fill="#FEF6EE"/><g clip-path="url(#a)" fill="#F49C4E"><path d="M17.25 23.4a1.68 1.68 0 0 0 1.168-.475l1.665.833c-.008.068-.02.134-.02.204 0 .93.757 1.688 1.687 1.688a1.69 1.69 0 0 0 1.688-1.688c0-.26-.064-.503-.17-.723l2.26-2.258c.22.105.462.169.722.169a1.69 1.69 0 0 0 1.688-1.688c0-.175-.035-.34-.085-.5l1.963-1.471c.268.179.589.284.934.284a1.69 1.69 0 0 0 1.688-1.688A1.69 1.69 0 0 0 30.75 14.4a1.69 1.69 0 0 0-1.688 1.687c0 .176.035.341.085.5l-1.963 1.472a1.676 1.676 0 0 0-.934-.284 1.69 1.69 0 0 0-1.688 1.687c0 .26.064.503.17.723l-2.26 2.26a1.667 1.667 0 0 0-.722-.17c-.454 0-.865.182-1.168.474l-1.665-.832c.008-.068.02-.135.02-.205a1.69 1.69 0 0 0-1.687-1.687 1.69 1.69 0 0 0-1.688 1.687c0 .93.758 1.688 1.688 1.688Z"/><path d="M33.038 32.475h-.6V20.587a.562.562 0 0 0-.563-.562h-2.25a.562.562 0 0 0-.563.562v11.888h-1.125v-8.513a.562.562 0 0 0-.562-.562h-2.25a.562.562 0 0 0-.563.562v8.513h-1.125v-4.013a.562.562 0 0 0-.562-.562h-2.25a.562.562 0 0 0-.563.562v4.013h-1.125v-6.263a.562.562 0 0 0-.562-.562h-2.25a.562.562 0 0 0-.563.562v6.263h-.6a.562.562 0 1 0 0 1.125h18.076a.562.562 0 1 0 0-1.125Z"/></g><defs><clipPath id="a"><path fill="#fff" transform="translate(14.4 14.4)" d="M0 0h19.2v19.2H0z"/></clipPath></defs></svg>