<svg width="48" height="48" fill="none" xmlns="http://www.w3.org/2000/svg"><circle cx="24" cy="24" r="24" fill="#F7EBF9"/><path d="M30.857 24.429a.343.343 0 0 0-.343-.343H17.486a.343.343 0 0 0-.343.343v6.514h13.714V24.43ZM24 28.886a1.372 1.372 0 1 1 0-2.743v.686a.686.686 0 1 0 .686.686h.685A1.372 1.372 0 0 1 24 28.885ZM24.093 17.215a.32.32 0 0 1-.186 0l-2.76-.789-.188 1.488h6.082l-.188-1.488-2.76.789ZM15.833 32.314a1.03 1.03 0 0 1-.062-.342v-.343a.688.688 0 0 1 .686-.686v-.994a1.715 1.715 0 0 0-1.227 2.365h.603ZM14.4 33h19.2v.686H14.4V33ZM32.229 31.629v.343a1.03 1.03 0 0 1-.062.342h.603c.094-.216.143-.45.144-.685a1.72 1.72 0 0 0-1.371-1.68v.994a.688.688 0 0 1 .686.686ZM32.229 27.172a1.034 1.034 0 0 0-.686-.97v3.054c.237.034.468.103.686.206v-2.29ZM16.457 26.201a1.033 1.033 0 0 0-.686.97v2.29c.217-.102.449-.17.686-.205v-3.055ZM16.457 31.971a.343.343 0 0 0 .343.343h14.4a.343.343 0 0 0 .343-.343v-.342H16.457v.342ZM22.07 23.4h3.857c.09-.066.175-.14.254-.22a3.066 3.066 0 0 0 .905-2.18v-.686a.686.686 0 0 0 0-1.371V18.6h-6.172v.343a.686.686 0 1 0 0 1.371V21a3.098 3.098 0 0 0 1.156 2.4Zm2.959-3.428a.343.343 0 1 1 .685 0v.685a.343.343 0 1 1-.685 0v-.686Zm-2.743 0a.343.343 0 1 1 .685 0v.685a.343.343 0 1 1-.685 0v-.686Zm.685 2.057c0 .085.365.343 1.029.343.664 0 1.029-.258 1.029-.343h.685c0 .586-.736 1.028-1.714 1.028-.977 0-1.714-.442-1.714-1.028h.685Z" fill="#B84DC5"/><path d="M27.429 15.686v2.571h.685v-2.743L24 13.8l-4.114 1.714L24 16.543l3.429-.857Z" fill="#B84DC5"/></svg>